<svg width="20" height="19" viewBox="0 0 20 19" fill="none" xmlns="http://www.w3.org/2000/svg">
<path fill-rule="evenodd" clip-rule="evenodd" d="M10 14.654L15.5513 17.9885L14.0775 11.7093L18.9641 7.49601L12.516 6.93468L10.0025 1.00001C10.0017 1 10.0008 1 10 1C9.99916 1 9.99833 1 9.99748 1.00001L7.48398 6.93468L1.03585 7.49601L5.92253 11.7093L4.44872 17.9885L10 14.654ZM3.86307 18.8059C3.70977 18.6964 3.59146 18.5532 3.50813 18.3764C3.42479 18.1997 3.41145 18.0042 3.46813 17.7901L4.81049 12.0709L0.345897 8.2215C0.179251 8.07709 0.0730178 7.90987 0.0271968 7.71982C-0.0186242 7.52975 -0.00654593 7.34509 0.0634314 7.16583C0.13343 6.98656 0.234258 6.84007 0.365915 6.72637C0.497572 6.61267 0.677553 6.53839 0.905856 6.50354L6.79782 5.99063L9.08511 0.590079C9.16843 0.389243 9.29466 0.240681 9.4638 0.144396C9.63295 0.0481319 9.81169 0 10 0C10.1883 0 10.367 0.0481319 10.5362 0.144396C10.7053 0.240681 10.8316 0.389243 10.9149 0.590079L13.2022 5.99063L19.0941 6.50354C19.3224 6.53839 19.5024 6.61267 19.6341 6.72637C19.7657 6.84007 19.8666 6.98656 19.9366 7.16583C20.0065 7.34509 20.0186 7.52975 19.9728 7.71982C19.927 7.90987 19.8207 8.07709 19.6541 8.2215L15.1895 12.0709L16.5319 17.7901C16.5885 18.0042 16.5752 18.1997 16.4919 18.3764C16.4085 18.5532 16.2902 18.6964 16.1369 18.8059C15.9836 18.9155 15.8124 18.979 15.6232 18.9964C15.4341 19.0138 15.2454 18.9678 15.057 18.8582L10 15.8206L4.94295 18.8582C4.75464 18.9678 4.56592 19.0138 4.37678 18.9964C4.18763 18.979 4.01639 18.9155 3.86307 18.8059Z" fill="#9FA6B2"/>
</svg>
