<svg width="160" height="160" viewBox="0 0 160 160" fill="none" xmlns="http://www.w3.org/2000/svg">
<rect x="0.5" y="0.5" width="159" height="159" rx="7.5" fill="#252530"/>
<rect x="0.5" y="0.5" width="159" height="159" rx="7.5" stroke="#353542"/>
<path d="M70.2464 92.0422C69.5422 92.0422 68.9393 91.7914 68.4378 91.2899C67.9363 90.7884 67.6855 90.1855 67.6855 89.4813V70.5199C67.6855 69.8156 67.9363 69.2127 68.4378 68.7112C68.9393 68.2097 69.5422 67.9589 70.2464 67.9589H81.498C81.7991 67.9589 82.0514 68.0608 82.255 68.2646C82.4587 68.4683 82.5605 68.7207 82.5605 69.0219C82.5605 69.3231 82.4587 69.5754 82.255 69.7788C82.0514 69.9822 81.7991 70.0839 81.498 70.0839H70.2464C70.1193 70.0839 70.0148 70.1248 69.9331 70.2065C69.8513 70.2883 69.8105 70.3927 69.8105 70.5199V89.4813C69.8105 89.6084 69.8513 89.7129 69.9331 89.7946C70.0148 89.8764 70.1193 89.9172 70.2464 89.9172H89.2079C89.335 89.9172 89.4395 89.8764 89.5212 89.7946C89.6029 89.7129 89.6438 89.6084 89.6438 89.4813V78.2297C89.6438 77.9287 89.7457 77.6764 89.9494 77.4727C90.1531 77.2691 90.4056 77.1672 90.7068 77.1672C91.0079 77.1672 91.2602 77.2691 91.4636 77.4727C91.6671 77.6764 91.7688 77.9287 91.7688 78.2297V89.4813C91.7688 90.1855 91.518 90.7884 91.0165 91.2899C90.515 91.7914 89.9121 92.0422 89.2079 92.0422H70.2464ZM87.3554 72.3723H85.5845C85.2835 72.3723 85.0312 72.2705 84.8275 72.0667C84.6239 71.863 84.5221 71.6106 84.5221 71.3094C84.5221 71.0082 84.6239 70.7559 84.8275 70.5525C85.0312 70.3491 85.2835 70.2474 85.5845 70.2474H87.3554V68.4765C87.3554 68.1755 87.4573 67.9231 87.661 67.7195C87.8647 67.5159 88.1172 67.4141 88.4184 67.4141C88.7195 67.4141 88.9718 67.5159 89.1752 67.7195C89.3786 67.9231 89.4803 68.1755 89.4803 68.4765V70.2474H91.2512C91.5522 70.2474 91.8046 70.3493 92.0082 70.553C92.2119 70.7567 92.3137 71.0092 92.3137 71.3103C92.3137 71.6115 92.2119 71.8638 92.0082 72.0672C91.8046 72.2706 91.5522 72.3723 91.2512 72.3723H89.4803V74.1432C89.4803 74.4442 89.3785 74.6966 89.1748 74.9002C88.971 75.1038 88.7186 75.2057 88.4174 75.2057C88.1162 75.2057 87.8639 75.1038 87.6605 74.9002C87.4571 74.6966 87.3554 74.4442 87.3554 74.1432V72.3723ZM78.6374 85.6945L76.3163 82.7195C76.1837 82.5579 76.0152 82.4771 75.8109 82.4771C75.6066 82.4771 75.4381 82.5624 75.3055 82.7332L73.0716 85.7054C72.9009 85.9233 72.8784 86.1485 73.0042 86.381C73.13 86.6135 73.3186 86.7297 73.5702 86.7297H85.9931C86.2447 86.7297 86.4333 86.6135 86.5591 86.381C86.6849 86.1485 86.6669 85.9233 86.5053 85.7054L83.1271 81.1803C82.9945 81.0095 82.8238 80.9242 82.6149 80.9242C82.4061 80.9242 82.235 81.0107 82.1018 81.1838L78.6374 85.6945Z" fill="#6E6E82"/>
</svg>
