<svg width="34" height="30" viewBox="0 0 34 30" fill="none" xmlns="http://www.w3.org/2000/svg">
<g filter="url(#filter0_d_5061_461)">
<path d="M7.24642 25.0422C6.54217 25.0422 5.9393 24.7914 5.4378 24.2899C4.9363 23.7884 4.68555 23.1855 4.68555 22.4813V3.51986C4.68555 2.81561 4.9363 2.21273 5.4378 1.71123C5.9393 1.20971 6.54217 0.958946 7.24642 0.958946H18.498C18.7991 0.958946 19.0514 1.06082 19.255 1.26456C19.4587 1.4683 19.5605 1.72075 19.5605 2.02191C19.5605 2.32309 19.4587 2.57539 19.255 2.7788C19.0514 2.98221 18.7991 3.08391 18.498 3.08391H7.24642C7.11927 3.08391 7.01483 3.12478 6.93309 3.20652C6.85135 3.28826 6.81048 3.39271 6.81048 3.51986V22.4813C6.81048 22.6084 6.85135 22.7129 6.93309 22.7946C7.01483 22.8764 7.11927 22.9172 7.24642 22.9172H26.2079C26.335 22.9172 26.4395 22.8764 26.5212 22.7946C26.6029 22.7129 26.6438 22.6084 26.6438 22.4813V11.2297C26.6438 10.9287 26.7457 10.6764 26.9494 10.4727C27.1531 10.2691 27.4056 10.1672 27.7068 10.1672C28.0079 10.1672 28.2602 10.2691 28.4636 10.4727C28.6671 10.6764 28.7688 10.9287 28.7688 11.2297V22.4813C28.7688 23.1855 28.518 23.7884 28.0165 24.2899C27.515 24.7914 26.9121 25.0422 26.2079 25.0422H7.24642ZM24.3554 5.37232H22.5845C22.2835 5.37232 22.0312 5.27047 21.8275 5.06675C21.6239 4.86301 21.5221 4.61056 21.5221 4.3094C21.5221 4.00822 21.6239 3.75592 21.8275 3.55251C22.0312 3.3491 22.2835 3.2474 22.5845 3.2474H24.3554V1.47653C24.3554 1.17548 24.4573 0.92314 24.661 0.719494C24.8647 0.515872 25.1172 0.414062 25.4184 0.414062C25.7195 0.414062 25.9718 0.515872 26.1752 0.719494C26.3786 0.92314 26.4803 1.17548 26.4803 1.47653V3.2474H28.2512C28.5522 3.2474 28.8046 3.34925 29.0082 3.55297C29.2119 3.75671 29.3137 4.00916 29.3137 4.31032C29.3137 4.6115 29.2119 4.8638 29.0082 5.06721C28.8046 5.27062 28.5522 5.37232 28.2512 5.37232H26.4803V7.14319C26.4803 7.44423 26.3785 7.69658 26.1748 7.90022C25.971 8.10385 25.7186 8.20566 25.4174 8.20566C25.1162 8.20566 24.8639 8.10385 24.6605 7.90022C24.4571 7.69658 24.3554 7.44423 24.3554 7.14319V5.37232ZM15.6374 18.6945L13.3163 15.7195C13.1837 15.5579 13.0152 15.4771 12.8109 15.4771C12.6066 15.4771 12.4381 15.5624 12.3055 15.7332L10.0716 18.7054C9.90088 18.9233 9.8784 19.1485 10.0042 19.381C10.13 19.6135 10.3186 19.7297 10.5702 19.7297H22.9931C23.2447 19.7297 23.4333 19.6135 23.5591 19.381C23.6849 19.1485 23.6669 18.9233 23.5053 18.7054L20.1271 14.1803C19.9945 14.0095 19.8238 13.9242 19.6149 13.9242C19.4061 13.9242 19.235 14.0107 19.1018 14.1838L15.6374 18.6945Z" fill="#6E6E82"/>
</g>
<defs>
<filter id="filter0_d_5061_461" x="0.685547" y="0.414062" width="32.6279" height="32.6289" filterUnits="userSpaceOnUse" color-interpolation-filters="sRGB">
<feFlood flood-opacity="0" result="BackgroundImageFix"/>
<feColorMatrix in="SourceAlpha" type="matrix" values="0 0 0 0 0 0 0 0 0 0 0 0 0 0 0 0 0 0 127 0" result="hardAlpha"/>
<feOffset dy="4"/>
<feGaussianBlur stdDeviation="2"/>
<feComposite in2="hardAlpha" operator="out"/>
<feColorMatrix type="matrix" values="0 0 0 0 0 0 0 0 0 0 0 0 0 0 0 0 0 0 0.25 0"/>
<feBlend mode="normal" in2="BackgroundImageFix" result="effect1_dropShadow_5061_461"/>
<feBlend mode="normal" in="SourceGraphic" in2="effect1_dropShadow_5061_461" result="shape"/>
</filter>
</defs>
</svg>
