<svg xmlns="http://www.w3.org/2000/svg" width="49" height="41" viewBox="0 0 49 41" fill="none">
  <path fill-rule="evenodd" clip-rule="evenodd" d="M2 0C0.895431 0 0 0.89543 0 2V30.9962C0 32.1007 0.89543 32.9962 2 32.9962H38.4996L47.3652 40.2643C48.018 40.7994 48.9992 40.3351 48.9992 39.491L48.9996 31.0377C48.9999 31.0239 49 31.01 49 30.9962V2C49 0.895431 48.1046 0 47 0H2Z" fill="#6E6E82"/>
  <path fill-rule="evenodd" clip-rule="evenodd" d="M10.0487 14.3477C10.601 14.3477 11.0487 14.7954 11.0487 15.3477V16.2844C11.0487 17.8054 12.1114 19.5405 14.5979 21.0024C17.0372 22.4365 20.5337 23.3857 24.4997 23.3857C28.4656 23.3857 31.9622 22.4365 34.4015 21.0024C36.888 19.5405 37.9507 17.8054 37.9507 16.2844V15.3477C37.9507 14.7954 38.3984 14.3477 38.9507 14.3477H40.7938C41.3461 14.3477 41.7938 14.7954 41.7938 15.3477V16.2844C41.7938 19.755 39.4152 22.5389 36.3379 24.3482C33.2135 26.1852 29.0238 27.2592 24.4997 27.2592C19.9756 27.2592 15.7859 26.1852 12.6614 24.3482C9.58417 22.5389 7.20557 19.755 7.20557 16.2844V15.3477C7.20557 14.7954 7.65328 14.3477 8.20557 14.3477H10.0487Z" fill="#1C1C22"/>
</svg>