<svg width="20" height="18" viewBox="0 0 20 18" fill="none" xmlns="http://www.w3.org/2000/svg">
<path d="M9.99035 17.2099C9.77625 17.2099 9.56119 17.1715 9.34518 17.0945C9.12914 17.0176 8.93908 16.8971 8.77498 16.733L7.33848 15.4273C5.56539 13.8106 3.98238 12.2225 2.58943 10.6628C1.19648 9.10322 0.5 7.4324 0.5 5.65037C0.5 4.23115 0.978525 3.04302 1.93558 2.08597C2.89263 1.12892 4.08076 0.650391 5.49998 0.650391C6.30638 0.650391 7.10285 0.836292 7.8894 1.20809C8.67593 1.57989 9.37946 2.18374 9.99998 3.01964C10.6205 2.18374 11.324 1.57989 12.1105 1.20809C12.8971 0.836292 13.6936 0.650391 14.5 0.650391C15.9192 0.650391 17.1073 1.12892 18.0644 2.08597C19.0214 3.04302 19.5 4.23115 19.5 5.65037C19.5 7.45163 18.7916 9.14105 17.375 10.7186C15.9583 12.2962 14.3788 13.8709 12.6365 15.4426L11.2154 16.733C11.0513 16.8971 10.8596 17.0176 10.6404 17.0945C10.4211 17.1715 10.2045 17.2099 9.99035 17.2099Z" fill="#FF0000"/>
</svg>
