<svg width="113" height="18" viewBox="0 0 113 18" fill="none" xmlns="http://www.w3.org/2000/svg">
<path d="M31.3313 12.9117C31.2209 12.9117 31.1313 12.8222 31.1313 12.7117V3.17015C31.1313 3.05969 31.2209 2.97015 31.3313 2.97015H32.6089C32.6778 2.97015 32.7419 3.00562 32.7785 3.06404L37.0705 9.92139C37.1539 10.0546 37.0581 10.2275 36.901 10.2275H36.7888C36.6323 10.2275 36.5365 10.0559 36.6185 9.92264L40.8404 3.06529C40.8768 3.00616 40.9413 2.97015 41.0107 2.97015H42.2876C42.398 2.97015 42.4875 3.05951 42.4876 3.16985L42.5019 12.7114C42.502 12.822 42.4125 12.9117 42.3019 12.9117H40.8759C40.7656 12.9117 40.6761 12.8224 40.6759 12.7121L40.6618 5.84887C40.6616 5.77288 40.7232 5.71118 40.7992 5.71118C40.9072 5.71118 40.9729 5.83004 40.9156 5.92155L37.306 11.6817C37.2695 11.7401 37.2054 11.7755 37.1366 11.7755H36.4961C36.4277 11.7755 36.364 11.7406 36.3273 11.6829L32.6811 5.95374C32.6142 5.84867 32.6897 5.71118 32.8142 5.71118C32.9014 5.71118 32.9721 5.78184 32.9721 5.869V12.7117C32.9721 12.8222 32.8825 12.9117 32.7721 12.9117H31.3313Z" fill="#F1F1F5"/>
<path d="M50.0295 13.0537C49.218 13.0537 48.4708 12.9259 47.788 12.6703C47.1051 12.4146 46.5113 12.0596 46.0066 11.6051C45.5019 11.1412 45.111 10.6015 44.8339 9.98606C44.5568 9.36116 44.4183 8.67945 44.4183 7.94094C44.4183 7.20242 44.5568 6.52545 44.8339 5.91001C45.111 5.28512 45.5019 4.74543 46.0066 4.29096C46.5113 3.82702 47.1051 3.46723 47.788 3.21159C48.4708 2.95595 49.213 2.82812 50.0146 2.82812C50.8261 2.82812 51.5683 2.95595 52.2413 3.21159C52.9241 3.46723 53.5179 3.82702 54.0226 4.29096C54.5273 4.74543 54.9182 5.28512 55.1953 5.91001C55.4724 6.52545 55.611 7.20242 55.611 7.94094C55.611 8.67945 55.4724 9.36116 55.1953 9.98606C54.9182 10.611 54.5273 11.1506 54.0226 11.6051C53.5179 12.0596 52.9241 12.4146 52.2413 12.6703C51.5683 12.9259 50.8311 13.0537 50.0295 13.0537ZM50.0146 11.4347C50.5391 11.4347 51.024 11.3495 51.4694 11.1791C51.9147 11.0086 52.3007 10.7672 52.6272 10.4547C52.9538 10.1328 53.2062 9.76356 53.3843 9.34696C53.5723 8.92089 53.6664 8.45222 53.6664 7.94094C53.6664 7.42966 53.5723 6.96572 53.3843 6.54912C53.2062 6.12305 52.9538 5.75379 52.6272 5.44134C52.3007 5.11942 51.9147 4.87325 51.4694 4.70282C51.024 4.5324 50.5391 4.44718 50.0146 4.44718C49.4901 4.44718 49.0052 4.5324 48.5599 4.70282C48.1244 4.87325 47.7385 5.11942 47.402 5.44134C47.0754 5.75379 46.8181 6.12305 46.6301 6.54912C46.452 6.96572 46.3629 7.42966 46.3629 7.94094C46.3629 8.44275 46.452 8.90669 46.6301 9.33276C46.8181 9.75883 47.0754 10.1328 47.402 10.4547C47.7286 10.7672 48.1145 11.0086 48.5599 11.1791C49.0052 11.3495 49.4901 11.4347 50.0146 11.4347Z" fill="#F1F1F5"/>
<path d="M62.3622 13.0537C61.5507 13.0537 60.8035 12.9307 60.1207 12.6845C59.4477 12.4289 58.8589 12.0738 58.3542 11.6193C57.8495 11.1554 57.4586 10.611 57.1815 9.98606C56.9044 9.36116 56.7658 8.67945 56.7658 7.94094C56.7658 7.20242 56.9044 6.52071 57.1815 5.89581C57.4586 5.27091 57.8495 4.73123 58.3542 4.27675C58.8688 3.81282 59.4675 3.45776 60.1504 3.21159C60.8332 2.95595 61.5804 2.82812 62.3919 2.82812C63.2726 2.82812 64.0643 2.96541 64.767 3.23999C65.4139 3.4893 65.9671 3.84399 66.4264 4.30405C66.5039 4.38166 66.4986 4.50744 66.4184 4.58227L65.4841 5.4544C65.4065 5.52677 65.2863 5.52562 65.2067 5.45548C64.84 5.13217 64.446 4.89075 64.0247 4.73123C63.5596 4.54186 63.045 4.44718 62.4809 4.44718C61.9366 4.44718 61.4319 4.5324 60.9668 4.70282C60.5017 4.87325 60.1009 5.11469 59.7644 5.42714C59.4279 5.73959 59.1657 6.10885 58.9776 6.53491C58.7995 6.96098 58.7104 7.42966 58.7104 7.94094C58.7104 8.44275 58.7995 8.90669 58.9776 9.33276C59.1657 9.75883 59.4279 10.1328 59.7644 10.4547C60.1009 10.7672 60.4967 11.0086 60.952 11.1791C61.4072 11.3495 61.9119 11.4347 62.4661 11.4347C62.9807 11.4347 63.4755 11.3589 63.9505 11.2075C64.3765 11.0661 64.7834 10.8443 65.1711 10.5422C65.2601 10.4729 65.3892 10.4851 65.4596 10.5733L66.3024 11.6302C66.3722 11.7178 66.3567 11.846 66.2652 11.9106C65.7589 12.2682 65.1803 12.5451 64.5295 12.7413C63.8169 12.9496 63.0945 13.0537 62.3622 13.0537ZM64.7775 11.5713C64.678 11.5581 64.6037 11.4733 64.6037 11.373V8.02732C64.6037 7.91686 64.6932 7.82732 64.8037 7.82732H66.2295C66.34 7.82732 66.4295 7.91686 66.4295 8.02732V11.5616C66.4295 11.6824 66.3232 11.7757 66.2033 11.7598L64.7775 11.5713Z" fill="#F1F1F5"/>
<path d="M67.6718 12.9117C67.5252 12.9117 67.4285 12.7592 67.4908 12.6266L71.9787 3.08502C72.0117 3.01491 72.0822 2.97015 72.1597 2.97015H73.806C73.8834 2.97015 73.9539 3.0148 73.9869 3.0848L78.489 12.6264C78.5516 12.759 78.4548 12.9117 78.3082 12.9117H76.7343C76.6555 12.9117 76.5841 12.8655 76.5518 12.7936L72.7085 4.23201C72.6491 4.09968 72.7459 3.9501 72.891 3.9501H73.0454C73.1903 3.9501 73.2871 4.09945 73.2279 4.23176L69.3988 12.7934C69.3666 12.8654 69.2951 12.9117 69.2163 12.9117H67.6718ZM69.7934 10.611C69.655 10.611 69.5584 10.4737 69.6051 10.3434L69.9812 9.29481C70.0097 9.21534 70.0851 9.16233 70.1695 9.16233H75.4992C75.5836 9.16233 75.659 9.21534 75.6875 9.29481L76.0635 10.3434C76.1103 10.4737 76.0137 10.611 75.8753 10.611H69.7934Z" fill="#F1F1F5"/>
<path fill-rule="evenodd" clip-rule="evenodd" d="M2.5 0C1.39543 0 0.5 0.895431 0.5 2V12.8478C0.5 13.9524 1.39543 14.8478 2.5 14.8478H18.5252L21.8222 17.4456C22.4781 17.9624 23.441 17.4952 23.4411 16.6602L23.4412 12.8724C23.4413 12.8642 23.4414 12.856 23.4414 12.8478V2C23.4414 0.895431 22.546 0 21.4414 0H2.5ZM4.80132 6.45619C5.28263 6.45619 5.67282 6.84638 5.67282 7.3277C5.67282 8.01212 6.17035 8.79288 7.33451 9.45072C8.47659 10.0961 10.1136 10.5232 11.9705 10.5232C13.8273 10.5232 15.4643 10.0961 16.6064 9.45072C17.7706 8.79288 18.2681 8.01212 18.2681 7.3277C18.2681 6.84638 18.6583 6.45619 19.1396 6.45619H19.1959C19.6772 6.45619 20.0674 6.84638 20.0674 7.3277C20.0674 8.88942 18.9538 10.1422 17.513 10.9563C16.0502 11.7829 14.0886 12.2662 11.9705 12.2662C9.85232 12.2662 7.89072 11.7829 6.42788 10.9563C4.98714 10.1422 3.87349 8.88942 3.87349 7.3277C3.87349 6.84638 4.26368 6.45619 4.745 6.45619H4.80132Z" fill="url(#paint0_linear_149_5903)"/>
<path d="M80.3348 12.9117C80.2243 12.9117 80.1348 12.8222 80.1348 12.7117V11.75C80.1348 11.7023 80.1518 11.6562 80.1828 11.62L86.6113 4.10891C86.7131 3.98993 86.906 4.02885 86.9537 4.17801L86.9836 4.27145C87.0249 4.4005 86.9286 4.5324 86.7931 4.5324H80.4387C80.3282 4.5324 80.2387 4.44285 80.2387 4.3324V3.17015C80.2387 3.05969 80.3282 2.97015 80.4387 2.97015H88.6039C88.7144 2.97015 88.8039 3.05969 88.8039 3.17015V4.13184C88.8039 4.17953 88.7869 4.22566 88.7559 4.26189L82.3222 11.779C82.2215 11.8967 82.031 11.8602 81.981 11.7136L81.947 11.6141C81.9027 11.4843 81.9992 11.3495 82.1363 11.3495H88.7969C88.9073 11.3495 88.9969 11.439 88.9969 11.5495V12.7117C88.9969 12.8222 88.9073 12.9117 88.7969 12.9117H80.3348Z" fill="url(#paint1_linear_149_5903)"/>
<path d="M95.3692 13.0538C94.5577 13.0538 93.8105 12.9259 93.1277 12.6703C92.4449 12.4146 91.8511 12.0596 91.3464 11.6051C90.8417 11.1412 90.4508 10.6015 90.1737 9.98606C89.8966 9.36116 89.758 8.67945 89.758 7.94094C89.758 7.20242 89.8966 6.52545 90.1737 5.91001C90.4508 5.28512 90.8417 4.74543 91.3464 4.29096C91.8511 3.82702 92.4449 3.46723 93.1277 3.21159C93.8105 2.95595 94.5528 2.82812 95.3544 2.82812C96.1659 2.82812 96.9081 2.95595 97.581 3.21159C98.2639 3.46723 98.8577 3.82702 99.3624 4.29096C99.8671 4.74543 100.258 5.28512 100.535 5.91001C100.812 6.52545 100.951 7.20242 100.951 7.94094C100.951 8.67945 100.812 9.36116 100.535 9.98606C100.258 10.611 99.8671 11.1506 99.3624 11.6051C98.8577 12.0596 98.2639 12.4146 97.581 12.6703C96.9081 12.9259 96.1708 13.0538 95.3692 13.0538ZM95.3544 11.4347C95.8789 11.4347 96.3638 11.3495 96.8091 11.1791C97.2545 11.0086 97.6404 10.7672 97.967 10.4547C98.2936 10.1328 98.5459 9.76356 98.7241 9.34696C98.9121 8.92089 99.0061 8.45222 99.0061 7.94094C99.0061 7.42966 98.9121 6.96572 98.7241 6.54912C98.5459 6.12305 98.2936 5.75379 97.967 5.44134C97.6404 5.11942 97.2545 4.87325 96.8091 4.70282C96.3638 4.5324 95.8789 4.44718 95.3544 4.44718C94.8299 4.44718 94.3449 4.5324 93.8996 4.70282C93.4642 4.87325 93.0782 5.11942 92.7417 5.44134C92.4152 5.75379 92.1579 6.12305 91.9698 6.54912C91.7917 6.96572 91.7026 7.42966 91.7026 7.94094C91.7026 8.44275 91.7917 8.90669 91.9698 9.33276C92.1579 9.75883 92.4152 10.1328 92.7417 10.4547C93.0683 10.7672 93.4543 11.0086 93.8996 11.1791C94.3449 11.3495 94.8299 11.4347 95.3544 11.4347Z" fill="url(#paint2_linear_149_5903)"/>
<path d="M101.548 12.9117C101.402 12.9117 101.305 12.7592 101.367 12.6266L105.855 3.08502C105.888 3.01491 105.959 2.97015 106.036 2.97015H107.683C107.76 2.97015 107.83 3.0148 107.863 3.0848L112.366 12.6264C112.428 12.759 112.331 12.9117 112.185 12.9117H110.611C110.532 12.9117 110.461 12.8655 110.428 12.7936L106.585 4.23201C106.526 4.09968 106.622 3.9501 106.767 3.9501H106.922C107.067 3.9501 107.164 4.09945 107.104 4.23176L103.275 12.7934C103.243 12.8654 103.172 12.9117 103.093 12.9117H101.548ZM103.67 10.611C103.531 10.611 103.435 10.4737 103.482 10.3434L103.858 9.29481C103.886 9.21534 103.962 9.16233 104.046 9.16233H109.376C109.46 9.16233 109.535 9.21534 109.564 9.29481L109.94 10.3434C109.987 10.4737 109.89 10.611 109.752 10.611H103.67Z" fill="url(#paint3_linear_149_5903)"/>
<defs>
<linearGradient id="paint0_linear_149_5903" x1="0.5" y1="0" x2="23.8931" y2="0.620115" gradientUnits="userSpaceOnUse">
<stop stop-color="#5097FA"/>
<stop offset="1" stop-color="#5363FF"/>
</linearGradient>
<linearGradient id="paint1_linear_149_5903" x1="80.1348" y1="2.82813" x2="113.023" y2="4.95255" gradientUnits="userSpaceOnUse">
<stop stop-color="#5097FA"/>
<stop offset="1" stop-color="#5363FF"/>
</linearGradient>
<linearGradient id="paint2_linear_149_5903" x1="80.1348" y1="2.82813" x2="113.023" y2="4.95255" gradientUnits="userSpaceOnUse">
<stop stop-color="#5097FA"/>
<stop offset="1" stop-color="#5363FF"/>
</linearGradient>
<linearGradient id="paint3_linear_149_5903" x1="80.1348" y1="2.82813" x2="113.023" y2="4.95255" gradientUnits="userSpaceOnUse">
<stop stop-color="#5097FA"/>
<stop offset="1" stop-color="#5363FF"/>
</linearGradient>
</defs>
</svg>
