<svg width="20" height="18" viewBox="0 0 20 18" fill="none" xmlns="http://www.w3.org/2000/svg">
<path d="M4.03845 14.9999L2.03655 17.0019C1.75193 17.2864 1.42469 17.3509 1.05483 17.1951C0.684942 17.0393 0.5 16.7589 0.5 16.3538V1.8077C0.5 1.30257 0.675 0.875 1.025 0.525C1.375 0.175 1.80257 0 2.3077 0H17.6923C18.1974 0 18.625 0.175 18.975 0.525C19.325 0.875 19.5 1.30257 19.5 1.8077V13.1923C19.5 13.6974 19.325 14.125 18.975 14.4749C18.625 14.825 18.1974 14.9999 17.6923 14.9999H4.03845Z" fill="url(#paint0_linear_3041_970)"/>
<defs>
<linearGradient id="paint0_linear_3041_970" x1="0.5" y1="0" x2="19.8779" y2="0.434888" gradientUnits="userSpaceOnUse">
<stop stop-color="#5097FA"/>
<stop offset="1" stop-color="#5363FF"/>
</linearGradient>
</defs>
</svg>
