<svg width="21" height="20" viewBox="0 0 21 20" fill="none" xmlns="http://www.w3.org/2000/svg">
<path d="M10.5 16.3206L5.44295 19.3582C5.25464 19.4678 5.06592 19.5138 4.87678 19.4964C4.68763 19.479 4.51639 19.4155 4.36307 19.3059C4.20977 19.1964 4.09146 19.0532 4.00813 18.8764C3.92479 18.6997 3.91145 18.5042 3.96813 18.2901L5.31049 12.5709L0.845897 8.7215C0.679251 8.57709 0.573018 8.40987 0.527197 8.21982C0.481376 8.02975 0.493454 7.84509 0.563431 7.66583C0.63343 7.48656 0.734258 7.34007 0.865915 7.22637C0.997572 7.11267 1.17755 7.03839 1.40586 7.00354L7.29782 6.49063L9.58511 1.09008C9.66843 0.889243 9.79466 0.740681 9.9638 0.644396C10.133 0.548132 10.3117 0.5 10.5 0.5C10.6883 0.5 10.867 0.548132 11.0362 0.644396C11.2053 0.740681 11.3316 0.889243 11.4149 1.09008L13.7022 6.49063L19.5941 7.00354C19.8224 7.03839 20.0024 7.11267 20.1341 7.22637C20.2657 7.34007 20.3666 7.48656 20.4366 7.66583C20.5065 7.84509 20.5186 8.02975 20.4728 8.21982C20.427 8.40987 20.3207 8.57709 20.1541 8.7215L15.6895 12.5709L17.0319 18.2901C17.0885 18.5042 17.0752 18.6997 16.9919 18.8764C16.9085 19.0532 16.7902 19.1964 16.6369 19.3059C16.4836 19.4155 16.3124 19.479 16.1232 19.4964C15.9341 19.5138 15.7454 19.4678 15.557 19.3582L10.5 16.3206Z" fill="#FFC83C"/>
</svg>
