<svg width="8" height="5" viewBox="0 0 8 5" fill="none" xmlns="http://www.w3.org/2000/svg">
<path d="M3.52033 4.17398L0.369204 1.02288C0.325737 0.979409 0.291504 0.930875 0.266504 0.877275C0.241504 0.823658 0.229004 0.766217 0.229004 0.70495C0.229004 0.582417 0.270438 0.475959 0.353304 0.385576C0.436154 0.295193 0.545362 0.25 0.680929 0.25H7.31933C7.4549 0.25 7.5641 0.295626 7.64695 0.386876C7.72982 0.478143 7.77125 0.584609 7.77125 0.706276C7.77125 0.736709 7.72445 0.842309 7.63085 1.02308L4.47993 4.174C4.4075 4.24643 4.33262 4.29932 4.2553 4.33265C4.17797 4.36598 4.09291 4.38265 4.00013 4.38265C3.90735 4.38265 3.82229 4.36598 3.74495 4.33265C3.66764 4.29932 3.59276 4.24643 3.52033 4.17398Z" fill="#9FA6B2"/>
</svg>
