<svg width="72" height="18" viewBox="0 0 72 18" fill="none" xmlns="http://www.w3.org/2000/svg">
<path d="M6.02321 6.92673L8.42028 2.99793C8.49048 2.88254 8.57642 2.80033 8.67809 2.75129C8.77978 2.70225 8.88711 2.67773 9.00009 2.67773C9.11306 2.67773 9.22039 2.70225 9.32208 2.75129C9.42376 2.80033 9.50969 2.88254 9.57989 2.99793L11.977 6.92673C12.0472 7.0397 12.0823 7.15833 12.0823 7.28262C12.0823 7.4069 12.0534 7.52047 11.9957 7.62335C11.938 7.72623 11.8587 7.80845 11.7577 7.86998C11.6568 7.93152 11.539 7.96229 11.4044 7.96229H6.59579C6.46063 7.96229 6.34236 7.93122 6.24099 7.86908C6.13961 7.80695 6.06077 7.72503 6.00446 7.62335C5.94676 7.52202 5.91791 7.40943 5.91791 7.28558C5.91791 7.16173 5.95301 7.04212 6.02321 6.92673ZM13.1251 16.2123C12.2645 16.2123 11.535 15.913 10.9364 15.3145C10.3379 14.7159 10.0386 13.9864 10.0386 13.1258C10.0386 12.2652 10.3379 11.5356 10.9364 10.9371C11.535 10.3385 12.2645 10.0393 13.1251 10.0393C13.9857 10.0393 14.7152 10.3385 15.3138 10.9371C15.9123 11.5356 16.2116 12.2652 16.2116 13.1258C16.2116 13.9864 15.9123 14.7159 15.3138 15.3145C14.7152 15.913 13.9857 16.2123 13.1251 16.2123ZM2.53857 15.1592V11.0904C2.53857 10.8983 2.60356 10.7376 2.73354 10.6083C2.8635 10.4789 3.02455 10.4143 3.21669 10.4143H7.28542C7.47756 10.4143 7.63829 10.4793 7.76761 10.6092C7.89694 10.7392 7.9616 10.9002 7.9616 11.0924V15.1611C7.9616 15.3532 7.89661 15.514 7.76664 15.6433C7.63667 15.7726 7.47562 15.8373 7.28349 15.8373H3.21476C3.02262 15.8373 2.86189 15.7723 2.73256 15.6423C2.60324 15.5124 2.53857 15.3513 2.53857 15.1592ZM13.1249 15.0873C13.6741 15.0873 14.1383 14.8977 14.5176 14.5185C14.897 14.1393 15.0866 13.6752 15.0866 13.126C15.0866 12.5768 14.897 12.1126 14.5178 11.7332C14.1387 11.3539 13.6745 11.1642 13.1253 11.1642C12.5761 11.1642 12.1119 11.3538 11.7325 11.733C11.3532 12.1122 11.1635 12.5764 11.1635 13.1256C11.1635 13.6747 11.3531 14.139 11.7323 14.5183C12.1115 14.8977 12.5757 15.0873 13.1249 15.0873ZM3.66354 14.7123H6.83664V11.5392H3.66354V14.7123ZM7.37892 6.83733H10.6212L9.00009 4.22962L7.37892 6.83733Z" fill="#9FA6B2"/>
<path d="M29.7949 3.72461C29.7881 7.23145 28.5918 10.4443 24.2168 12.5977L23.6152 11.7773C25.8984 10.6631 27.2725 9.25488 28.0107 7.62109L23.8477 8.01758L23.6699 7.07422L28.3389 6.75977C28.5576 6.07617 28.6807 5.3584 28.7285 4.61328H24.2852V3.72461H29.7949ZM31.832 14.6074V2.45312H32.8984V7.40234H34.8672V8.30469H32.8984V14.6074H31.832ZM40.5957 3.94336V4.80469H37.0957V7.21094H40.0352V8.07227H37.0957V10.8066C38.8389 10.7861 39.9053 10.7178 41.2246 10.4785L41.3203 11.3535C39.9121 11.6406 38.7637 11.6748 36.8359 11.6816H36.0703V3.94336H40.5957ZM40.6914 7.96289V7.07422H42.4824V2.75391H43.5078V13.9785H42.4824V7.96289H40.6914ZM44.957 14.6074V2.45312H45.9961V14.6074H44.957ZM57.4395 3.68359V4.90039C57.4258 6.39062 57.4258 8.05859 56.9883 10.5059L55.8945 10.3828C56.3525 8.05859 56.3525 6.35645 56.3594 4.90039V4.57227H48.8672V3.68359H57.4395ZM47.6914 12.8848V11.9961H52.0391V7.64844H53.0918V11.9961H58.7656V12.8848H47.6914ZM69.8262 2.45312V14.6348H68.7598V2.45312H69.8262ZM60.4746 4.47656V3.58789H66.1348V7.9082H61.5957V10.7793C63.6123 10.7861 65.4102 10.6904 67.584 10.3418L67.6934 11.2441C65.458 11.5928 63.6123 11.6816 61.5137 11.6816H60.502V7.0332H65.0547V4.47656H60.4746Z" fill="#6E6E82"/>
</svg>
