<svg width="49" height="41" viewBox="0 0 49 41" fill="none" xmlns="http://www.w3.org/2000/svg">
<path fill-rule="evenodd" clip-rule="evenodd" d="M2 0C0.895431 0 0 0.89543 0 2V30.9962C0 32.1007 0.89543 32.9962 2 32.9962H38.4996L47.3652 40.2643C48.018 40.7994 48.9992 40.3351 48.9992 39.491L48.9996 31.0377C48.9999 31.0239 49 31.01 49 30.9962V2C49 0.895431 48.1046 0 47 0H2Z" fill="#6E6E82"/>
<path fill-rule="evenodd" clip-rule="evenodd" d="M38.9503 27.2598C38.398 27.2598 37.9503 26.812 37.9503 26.2598L37.9503 25.323C37.9503 23.802 36.8877 22.067 34.4012 20.6051C31.9618 19.1709 28.4653 18.2217 24.4993 18.2217C20.5334 18.2217 17.0369 19.1709 14.5975 20.6051C12.111 22.067 11.0484 23.802 11.0484 25.323L11.0484 26.2598C11.0484 26.8121 10.6006 27.2598 10.0484 27.2598L8.20522 27.2598C7.65294 27.2598 7.20522 26.8121 7.20522 26.2598L7.20522 25.323C7.20522 21.8524 9.58382 19.0685 12.6611 17.2592C15.7855 15.4223 19.9753 14.3482 24.4993 14.3482C29.0234 14.3482 33.2132 15.4223 36.3376 17.2592C39.4149 19.0685 41.7935 21.8524 41.7935 25.323L41.7935 26.2598C41.7935 26.8121 41.3457 27.2598 40.7935 27.2598L38.9503 27.2598Z" fill="#1C1C22"/>
</svg>
